<svg width="24" height="24" viewBox="0 0 24 24" fill="none" xmlns="http://www.w3.org/2000/svg">
<path d="M13.3637 13.4137L9.12111 9.1711C8.73058 8.78057 8.09742 8.78057 7.70689 9.1711C7.31637 9.56162 7.31637 10.1948 7.70689 10.5853L11.9495 14.828C12.3401 15.2185 12.9732 15.2185 13.3637 14.828C13.7543 14.4374 13.7543 13.8043 13.3637 13.4137Z" fill="#454F63"/>
<path d="M16.2498 9.17126L12.0071 13.4139C11.6166 13.8044 11.6166 14.4376 12.0071 14.8281C12.3976 15.2186 13.0308 15.2186 13.4213 14.8281L17.664 10.5855C18.0545 10.1949 18.0545 9.56178 17.664 9.17126C17.2734 8.78073 16.6403 8.78073 16.2498 9.17126Z" fill="#454F63"/>
</svg>
