<svg width="24" height="24" viewBox="0 0 24 24" fill="none" xmlns="http://www.w3.org/2000/svg">
<path d="M12.286 5.43199C12.7212 4.97012 13.2481 4.60419 13.8329 4.35761C14.4177 4.11103 15.0475 3.98922 15.682 3.99999C18.668 3.99999 21 6.41399 21 9.84999C21 11.895 19.977 13.614 18.136 15.45C17.727 15.859 16.5 16.964 16.459 17.005C16.295 17.169 16.091 17.332 15.886 17.537C15.641 17.737 15.354 17.987 15.109 18.192C14.536 18.683 13.923 19.133 13.309 19.583C13.1103 19.7229 12.9191 19.8731 12.736 20.033C12.6511 20.0826 12.5693 20.1374 12.491 20.197C12.3543 20.2964 12.1896 20.35 12.0205 20.35C11.8514 20.35 11.6867 20.2964 11.55 20.197C11.4717 20.1374 11.3899 20.0826 11.305 20.033C11.141 19.91 10.937 19.747 10.732 19.583C10.118 19.133 9.505 18.642 8.932 18.192C8.646 17.947 8.4 17.742 8.155 17.537C7.955 17.373 7.787 17.169 7.582 17.005C7.5 16.964 6.273 15.86 5.864 15.45C3.982 13.614 3 11.9 3 9.84999C3 6.41399 5.332 3.99999 8.318 3.99999C8.95321 3.98867 9.58378 4.1102 10.1693 4.3568C10.7548 4.6034 11.2823 4.96962 11.718 5.43199C11.8219 5.51704 11.9164 5.61291 12 5.71799C12.0848 5.6127 12.1807 5.51682 12.286 5.43199ZM12.327 18.318C12.9 17.868 13.513 17.418 14.045 16.968C14.308 16.7704 14.5542 16.5513 14.781 16.313C14.9676 16.1597 15.1452 15.9957 15.313 15.822C15.395 15.74 16.622 14.636 16.99 14.267C18.545 12.712 19.363 11.367 19.363 9.84899C19.363 7.31299 17.727 5.63499 15.681 5.63499C14.8367 5.64183 14.0288 5.97972 13.431 6.57599C13.2295 6.77355 13.051 6.99328 12.899 7.23099C12.817 7.35399 12.776 7.47599 12.735 7.51699C12.6697 7.66321 12.5635 7.7874 12.4292 7.87455C12.2948 7.96169 12.1381 8.00807 11.978 8.00807C11.8179 8.00807 11.6612 7.96169 11.5268 7.87455C11.3925 7.7874 11.2863 7.66321 11.221 7.51699C11.1713 7.41888 11.1166 7.32342 11.057 7.23099C10.9025 6.99507 10.7242 6.77559 10.525 6.57599C10.2394 6.27808 9.89648 6.04111 9.51682 5.87938C9.13716 5.71765 8.72867 5.63451 8.316 5.63499C6.271 5.63499 4.634 7.31199 4.634 9.84899C4.634 11.363 5.452 12.713 7.007 14.308C7.375 14.676 8.607 15.781 8.684 15.863C8.85176 16.0367 9.02939 16.2007 9.216 16.354C9.461 16.554 9.707 16.763 9.952 17.009C10.484 17.459 11.097 17.909 11.67 18.359C11.793 18.441 11.87 18.523 11.997 18.604C12.0859 18.4879 12.1971 18.3906 12.324 18.318H12.327Z" fill="#959DAD"/>
</svg>
