<svg width="24" height="24" viewBox="0 0 24 24" fill="none" xmlns="http://www.w3.org/2000/svg">
<path d="M13.746 6.87303C13.7452 6.50276 13.6347 6.14102 13.4284 5.83354C13.2221 5.52605 12.9293 5.28661 12.587 5.14546C12.2447 5.00431 11.8682 4.96779 11.5052 5.04051C11.1421 5.11323 10.8087 5.29193 10.5472 5.55403C10.2856 5.81613 10.1076 6.14988 10.0357 6.51309C9.96376 6.87631 10.0011 7.2527 10.143 7.59472C10.2848 7.93673 10.5249 8.22902 10.8328 8.43465C11.1408 8.64028 11.5027 8.75003 11.873 8.75003C12.37 8.74844 12.846 8.55005 13.1971 8.19827C13.5481 7.8465 13.7455 7.36999 13.746 6.87303ZM13.746 18.112C13.746 17.7416 13.6362 17.3795 13.4303 17.0714C13.2245 16.7634 12.932 16.5234 12.5898 16.3816C12.2475 16.2398 11.8709 16.2027 11.5076 16.275C11.1443 16.3473 10.8105 16.5257 10.5486 16.7876C10.2866 17.0496 10.1083 17.3833 10.036 17.7466C9.96372 18.11 10.0008 18.4865 10.1426 18.8288C10.2843 19.171 10.5244 19.4636 10.8324 19.6694C11.1404 19.8752 11.5026 19.985 11.873 19.985C12.3693 19.9834 12.8448 19.7856 13.1957 19.4347C13.5466 19.0838 13.7444 18.6083 13.746 18.112ZM13.746 12.492C13.746 12.1216 13.6362 11.7595 13.4303 11.4514C13.2245 11.1434 12.932 10.9034 12.5898 10.7616C12.2475 10.6198 11.8709 10.5827 11.5076 10.655C11.1443 10.7273 10.8105 10.9057 10.5486 11.1676C10.2866 11.4296 10.1083 11.7633 10.036 12.1266C9.96372 12.49 10.0008 12.8665 10.1426 13.2088C10.2843 13.551 10.5244 13.8436 10.8324 14.0494C11.1404 14.2552 11.5026 14.365 11.873 14.365C12.3691 14.3634 12.8444 14.1657 13.1953 13.815C13.5462 13.4643 13.7442 12.9891 13.746 12.493V12.492Z" fill="#454F63"/>
</svg>
