<svg width="24" height="24" viewBox="0 0 24 24" fill="none" xmlns="http://www.w3.org/2000/svg">
<path d="M7.931 20.127H3.806C3.48817 20.1271 3.18252 20.0048 2.95254 19.7854C2.72255 19.566 2.58591 19.2665 2.571 18.949V10.919C2.57309 10.5816 2.70072 10.257 2.92903 10.0086C3.15734 9.76013 3.46996 9.60557 3.806 9.57501H7.931C8.465 9.57501 8.981 9.99901 8.981 10.92V18.95C8.9971 19.0978 8.98199 19.2474 8.93664 19.389C8.89129 19.5306 8.81671 19.661 8.71773 19.772C8.61875 19.8829 8.49758 19.9719 8.36206 20.033C8.22653 20.0942 8.07968 20.1262 7.931 20.127ZM4.081 18.617H7.471V11.085H4.082L4.081 18.617Z" fill="#60C5E7"/>
<path d="M16.55 19.371H15.758C15.5576 19.371 15.3655 19.2914 15.2238 19.1497C15.0821 19.0081 15.0025 18.8159 15.0025 18.6155C15.0025 18.4151 15.0821 18.223 15.2238 18.0813C15.3655 17.9396 15.5576 17.86 15.758 17.86H16.55C16.587 17.86 17.342 17.86 17.49 17.455C17.711 16.866 18.595 13.455 19.111 11.322C19.0812 10.9662 18.9607 10.624 18.761 10.328H14.267C14.0666 10.328 13.8745 10.2484 13.7328 10.1067C13.5911 9.96505 13.5115 9.77289 13.5115 9.57252C13.5115 9.37215 13.5911 9.17998 13.7328 9.0383C13.8745 8.89661 14.0666 8.81702 14.267 8.81702H18.927C19.1253 8.82323 19.3196 8.87454 19.4951 8.96707C19.6707 9.0596 19.8228 9.1909 19.94 9.35102C20.4366 10.0099 20.6727 10.8289 20.603 11.651C20.456 12.24 19.24 17.139 18.909 18.005C18.6947 18.4399 18.3563 18.8014 17.9366 19.044C17.5169 19.2866 17.0348 19.3994 16.551 19.368L16.55 19.371Z" fill="#60C5E7"/>
<path d="M8.613 12.244C8.4377 12.2436 8.26801 12.1822 8.13312 12.0702C7.99823 11.9582 7.90657 11.8028 7.8739 11.6306C7.84123 11.4583 7.86959 11.2801 7.95411 11.1265C8.03863 10.9729 8.17402 10.8536 8.337 10.789L8.945 10.549L10.529 7.73103C10.4802 6.96607 10.5357 6.19802 10.694 5.44803C10.8616 5.10931 11.118 4.82248 11.4359 4.61817C11.7538 4.41386 12.1213 4.29975 12.499 4.28803C13.0345 4.28707 13.5564 4.45597 13.9898 4.77043C14.4233 5.08488 14.7458 5.52869 14.911 6.03803C15.2826 6.65963 15.4696 7.37421 15.4499 8.09817C15.4302 8.82212 15.2048 9.52551 14.8 10.126C14.6702 10.2785 14.4853 10.3734 14.2857 10.39C14.0861 10.4066 13.8881 10.3435 13.7349 10.2146C13.5816 10.0857 13.4856 9.90136 13.4679 9.70189C13.4501 9.50242 13.512 9.30402 13.64 9.15003C13.845 8.76664 13.9429 8.3351 13.9233 7.90079C13.9038 7.46648 13.7676 7.04547 13.529 6.68203C13.345 6.31403 13.05 5.85303 12.645 5.81703C12.5409 5.80472 12.4353 5.81634 12.3364 5.851C12.2374 5.88566 12.1477 5.94244 12.074 6.01703C12.0002 6.64754 11.9818 7.28331 12.019 7.91703V8.13803L9.995 11.766L8.89 12.208C8.80129 12.2382 8.70753 12.2508 8.614 12.245L8.613 12.244Z" fill="#60C5E7"/>
<path d="M16.514 19.371H11.063L10.934 19.334C10.069 19.021 8.245 18.321 8.245 18.321L8.779 16.903C8.779 16.903 10.437 17.529 11.339 17.861H16.532C16.6314 17.8599 16.7301 17.8787 16.8222 17.9163C16.9143 17.9539 16.9979 18.0094 17.0682 18.0798C17.1386 18.1501 17.1941 18.2337 17.2317 18.3258C17.2693 18.4179 17.2881 18.5166 17.287 18.616C17.2823 18.8179 17.1988 19.0099 17.0543 19.151C16.9099 19.2921 16.7159 19.3711 16.514 19.371Z" fill="#60C5E7"/>
</svg>
