<svg width="24" height="24" viewBox="0 0 24 24" fill="none" xmlns="http://www.w3.org/2000/svg">
<path d="M22.978 8.11C22.778 7.61 21.162 7.736 18.778 8.343C17.844 6.91687 16.4453 5.85781 14.8193 5.34553C13.1933 4.83325 11.4401 4.89929 9.8573 5.53245C8.27446 6.16561 6.95942 7.32689 6.13531 8.81925C5.31121 10.3116 5.0288 12.0431 5.336 13.72C3.123 14.961 1.815 16.016 2.021 16.527C2.142 16.827 2.769 16.902 3.763 16.785C3.844 16.776 3.929 16.764 4.015 16.752H4.053L4.316 16.711H4.349L4.635 16.661L4.935 16.603L4.979 16.594C5.079 16.574 5.179 16.552 5.279 16.529L5.321 16.521C5.537 16.473 5.761 16.4207 5.993 16.364L6.034 16.354C7.156 16.076 8.456 15.687 9.866 15.207C8.823 15.816 7.749 16.465 6.829 17.023C7.86881 18.3265 9.31901 19.24 10.9438 19.6149C12.5686 19.9897 14.2724 19.8039 15.7782 19.0876C17.284 18.3713 18.5032 17.1667 19.2375 15.6697C19.9719 14.1726 20.1782 12.4712 19.823 10.842C21.941 9.626 23.18 8.61 22.978 8.11ZM13.947 14.233L12.683 13.785L11.461 14.338L11.496 13L10.596 12.008L11.882 11.626L12.546 10.461L13.306 11.566L14.619 11.838L13.802 12.9L13.947 14.233Z" fill="#60C5E7"/>
</svg>
