<svg width="24" height="24" viewBox="0 0 24 24" fill="none" xmlns="http://www.w3.org/2000/svg">
<path d="M13.86 18.383H8.778C8.33024 18.3812 7.90129 18.2028 7.5843 17.8865C7.26732 17.5703 7.08789 17.1418 7.085 16.694V9.91402H9.625C9.78763 9.91253 9.94631 9.86369 10.0816 9.77348C10.217 9.68326 10.3231 9.55557 10.387 9.40602C10.4436 9.24951 10.4577 9.08079 10.4278 8.91706C10.398 8.75333 10.3252 8.60045 10.217 8.47402L6.661 4.91702C6.619 4.91702 6.619 4.87502 6.576 4.87502C6.533 4.87502 6.534 4.87502 6.491 4.83302C6.449 4.83302 6.449 4.83302 6.406 4.79102C6.29672 4.82493 6.18222 4.83882 6.068 4.83202C6.026 4.83202 6.026 4.83202 5.983 4.87402C5.941 4.87402 5.941 4.87402 5.898 4.91602C5.86589 4.92028 5.83623 4.93546 5.814 4.95902C5.80845 4.95888 5.80292 4.95987 5.79777 4.96193C5.79261 4.964 5.78792 4.96708 5.78399 4.97101C5.78007 4.97494 5.77698 4.97962 5.77492 4.98478C5.77285 4.98994 5.77186 4.99546 5.772 5.00102C5.729 5.00102 5.687 5.04402 5.645 5.08602L2.257 8.47402C2.12953 8.58845 2.04374 8.74204 2.01315 8.91059C1.98255 9.07914 2.00888 9.25308 2.088 9.40501C2.15192 9.55457 2.25803 9.68226 2.39336 9.77248C2.52868 9.86269 2.68736 9.91153 2.85 9.91302H5.391V16.688C5.39416 17.5856 5.75213 18.4455 6.38681 19.0802C7.0215 19.7149 7.88142 20.0729 8.779 20.076H13.86C14.0846 20.076 14.3001 19.9868 14.4589 19.8279C14.6178 19.6691 14.707 19.4537 14.707 19.229C14.707 19.0044 14.6178 18.7889 14.4589 18.6301C14.3001 18.4713 14.0846 18.382 13.86 18.382V18.383Z" fill="#959DAD"/>
<path d="M22.243 15.503C22.1791 15.3535 22.073 15.2258 21.9376 15.1356C21.8023 15.0454 21.6436 14.9965 21.481 14.995H18.941V8.22003C18.9378 7.32245 18.5799 6.46254 17.9452 5.82785C17.3105 5.19316 16.4506 4.83519 15.553 4.83203H10.472C10.2474 4.83203 10.0319 4.92127 9.87308 5.08011C9.71424 5.23895 9.625 5.45439 9.625 5.67903C9.625 5.90367 9.71424 6.11911 9.87308 6.27795C10.0319 6.43679 10.2474 6.52603 10.472 6.52603H15.553C16.0018 6.52761 16.4317 6.70659 16.7491 7.02394C17.0664 7.34128 17.2454 7.77124 17.247 8.22003V14.995H14.706C14.5434 14.9965 14.3847 15.0454 14.2494 15.1356C14.114 15.2258 14.0079 15.3535 13.944 15.503C13.8874 15.6593 13.8733 15.8278 13.903 15.9913C13.9327 16.1548 14.0051 16.3076 14.113 16.434L17.67 19.991C17.712 19.991 17.712 20.033 17.755 20.033C17.798 20.033 17.797 20.033 17.84 20.075C17.882 20.075 17.882 20.075 17.925 20.117H18.263C18.305 20.117 18.305 20.117 18.348 20.075C18.39 20.075 18.39 20.075 18.433 20.033C18.475 20.033 18.475 19.991 18.518 19.991C18.5236 19.9912 18.5291 19.9902 18.5342 19.9881C18.5394 19.9861 18.5441 19.983 18.548 19.979C18.5519 19.9751 18.555 19.9704 18.5571 19.9653C18.5591 19.9601 18.5601 19.9546 18.56 19.949L18.687 19.822L22.075 16.432C22.2022 16.3174 22.2876 16.1637 22.3181 15.9952C22.3485 15.8267 22.3221 15.6529 22.243 15.501V15.503Z" fill="#959DAD"/>
</svg>
