<svg width="24" height="24" viewBox="0 0 24 24" fill="none" xmlns="http://www.w3.org/2000/svg">
<path d="M13.4137 10.6363L9.1711 14.8789C8.78057 15.2694 8.78057 15.9026 9.1711 16.2931C9.56162 16.6836 10.1948 16.6836 10.5853 16.2931L14.828 12.0505C15.2185 11.6599 15.2185 11.0268 14.828 10.6363C14.4374 10.2457 13.8043 10.2457 13.4137 10.6363Z" fill="#09232B"/>
<path d="M9.17125 7.75026L13.4139 11.9929C13.8044 12.3834 14.4376 12.3834 14.8281 11.9929C15.2186 11.6024 15.2186 10.9692 14.8281 10.5787L10.5855 6.33605C10.1949 5.94553 9.56178 5.94553 9.17125 6.33605C8.78073 6.72658 8.78073 7.35974 9.17125 7.75026Z" fill="#09232B"/>
</svg>
